<svg width="24" height="24" viewBox="0 0 24 24" fill="none" xmlns="http://www.w3.org/2000/svg">
<path d="M9 2V6.91H7V2C4.16 2.48 2 4.94 2 7.91C2 10.13 3.21 12.06 5 13.1V21.91C5 22.46 5.45 22.91 6 22.91H10C10.55 22.91 11 22.46 11 21.91V13.1C12.79 12.06 14 10.13 14 7.91C14 4.94 11.84 2.48 9 2ZM10 11.37L9 11.95V20.91H7V11.95L6 11.37C4.77 10.65 4 9.33 4 7.91C4 6.91 4.37 5.97 5 5.26V8.91H11V5.26C11.63 5.97 12 6.91 12 7.91C12 9.33 11.23 10.65 10 11.37ZM20.94 18.85C20.96 18.7 20.97 18.56 20.97 18.41C20.97 18.26 20.96 18.11 20.94 17.96L21.91 17.23C22 17.16 22.03 17.04 21.97 16.94L21.05 15.38C21 15.28 20.87 15.24 20.76 15.28L19.61 15.73C19.37 15.56 19.12 15.41 18.83 15.29L18.66 14.1C18.64 13.99 18.54 13.91 18.43 13.91H16.58C16.46 13.91 16.36 13.99 16.34 14.1L16.17 15.29C15.88 15.41 15.63 15.56 15.39 15.73L14.24 15.28C14.14 15.24 14 15.28 13.96 15.38L13.03 16.94C12.97 17.04 13 17.16 13.09 17.23L14.06 17.96C14.05 18.11 14.03 18.26 14.03 18.41C14.03 18.56 14.05 18.7 14.06 18.85L13.09 19.59C13 19.66 12.97 19.78 13.03 19.88L13.96 21.44C14 21.54 14.14 21.57 14.24 21.54L15.39 21.08C15.63 21.26 15.88 21.41 16.17 21.53L16.34 22.72C16.36 22.83 16.46 22.91 16.58 22.91H18.43C18.54 22.91 18.64 22.83 18.66 22.72L18.83 21.53C19.12 21.41 19.37 21.26 19.61 21.08L20.76 21.54C20.87 21.57 21 21.54 21.05 21.44L21.97 19.88C22.03 19.78 22 19.66 21.91 19.59L20.94 18.85ZM17.5 19.91C16.67 19.91 16 19.24 16 18.41C16 17.58 16.67 16.91 17.5 16.91C18.33 16.91 19 17.58 19 18.41C19 19.24 18.33 19.91 17.5 19.91Z" fill="#7F7989"/>
</svg>
