<svg width="24" height="24" viewBox="0 0 24 24" fill="none" xmlns="http://www.w3.org/2000/svg">
    <path d="M22.5368 10.9L13.1 1.46316C12.8105 1.17368 12.4053 1 12 1C11.5947 1 11.1895 1.17368 10.9 1.46316L8.87368 3.48947L11.2474 5.86316C11.4789 5.74737 11.7105 5.68947 12 5.68947C12.9842 5.68947 13.7368 6.44211 13.7368 7.42632C13.7368 7.71579 13.6789 7.94737 13.5632 8.17895L15.8789 10.4947C16.1105 10.3789 16.3421 10.3211 16.6316 10.3211C17.6158 10.3211 18.3684 11.0737 18.3684 12.0579C18.3684 13.0421 17.6158 13.7947 16.6316 13.7947C15.6474 13.7947 14.8947 13.0421 14.8947 12.0579C14.8947 11.7684 14.9526 11.5368 15.0684 11.3053L12.7526 8.98947C12.6947 8.98947 12.6368 9.04737 12.5789 9.04737V15.0684C13.2737 15.3 13.7368 15.9368 13.7368 16.6895C13.7368 17.6737 12.9842 18.4263 12 18.4263C11.0158 18.4263 10.2632 17.6737 10.2632 16.6895C10.2632 15.9368 10.7263 15.3 11.4211 15.0684V8.98947C10.7263 8.75789 10.2632 8.12105 10.2632 7.36842C10.2632 7.07895 10.3211 6.84737 10.4368 6.61579L8.06316 4.24211L1.46316 10.9C1.17368 11.1895 1 11.5947 1 12C1 12.4053 1.17368 12.8105 1.46316 13.1L10.9 22.5368C11.1895 22.8263 11.5947 23 12 23C12.4053 23 12.8105 22.8263 13.1 22.5368L22.5368 13.1C22.8263 12.8105 23 12.4053 23 12C23 11.5947 22.8263 11.1895 22.5368 10.9Z" fill="#F4511E"/>
</svg>
