<svg width="24" height="24" viewBox="0 0 24 24" fill="none" xmlns="http://www.w3.org/2000/svg">
<path fill-rule="evenodd" clip-rule="evenodd" d="M10.0126 4C10.0126 2.89543 10.908 2 12.0126 2C13.1171 2 14.0126 2.89543 14.0126 4C14.0126 4.83934 13.4955 5.55793 12.7626 5.85462V6.64538C13.0767 6.77254 13.3512 6.97719 13.5623 7.23562L15.0284 6.74691C15.1528 5.76183 15.9937 5 17.0126 5C18.1171 5 19.0126 5.89543 19.0126 7C19.0126 8.10457 18.1171 9 17.0126 9C16.3582 9 15.7773 8.6858 15.4124 8.20004L14.0055 8.66901C13.978 8.99821 13.8707 9.30474 13.703 9.56923L14.2745 10.1406C14.5028 10.0499 14.7519 10 15.0126 10C16.1171 10 17.0126 10.8954 17.0126 12C17.0126 13.1046 16.1171 14 15.0126 14C13.908 14 13.0126 13.1046 13.0126 12C13.0126 11.7065 13.0758 11.4278 13.1893 11.1768L12.4618 10.4493C12.3174 10.4825 12.167 10.5 12.0126 10.5C11.8581 10.5 11.7077 10.4825 11.5633 10.4493L10.8358 11.1768C10.9494 11.4278 11.0126 11.7065 11.0126 12C11.0126 13.1046 10.1171 14 9.01256 14C7.90799 14 7.01256 13.1046 7.01256 12C7.01256 10.8954 7.90799 10 9.01256 10C9.27324 10 9.52228 10.0499 9.75065 10.1406L10.3221 9.56923C10.1544 9.30474 10.0471 8.99821 10.0196 8.66901L8.61267 8.20004C8.24779 8.6858 7.66687 9 7.01256 9C5.90799 9 5.01256 8.10457 5.01256 7C5.01256 5.89543 5.90799 5 7.01256 5C8.03139 5 8.8723 5.76183 8.99669 6.74691L10.4628 7.23562C10.674 6.97719 10.9484 6.77254 11.2626 6.64538V5.85462C10.5296 5.55793 10.0126 4.83934 10.0126 4ZM12.0126 4.5C11.7364 4.5 11.5126 4.27614 11.5126 4C11.5126 3.72386 11.7364 3.5 12.0126 3.5C12.2887 3.5 12.5126 3.72386 12.5126 4C12.5126 4.27614 12.2887 4.5 12.0126 4.5ZM11.5126 8.5C11.5126 8.77614 11.7364 9 12.0126 9C12.2887 9 12.5126 8.77614 12.5126 8.5C12.5126 8.22386 12.2887 8 12.0126 8C11.7364 8 11.5126 8.22386 11.5126 8.5ZM7.01256 7.5C6.73641 7.5 6.51256 7.27614 6.51256 7C6.51256 6.72386 6.73641 6.5 7.01256 6.5C7.2887 6.5 7.51256 6.72386 7.51256 7C7.51256 7.27614 7.2887 7.5 7.01256 7.5ZM17.5126 7C17.5126 7.27614 17.2887 7.5 17.0126 7.5C16.7364 7.5 16.5126 7.27614 16.5126 7C16.5126 6.72386 16.7364 6.5 17.0126 6.5C17.2887 6.5 17.5126 6.72386 17.5126 7ZM9.01256 12.5C8.73641 12.5 8.51256 12.2761 8.51256 12C8.51256 11.7239 8.73641 11.5 9.01256 11.5C9.2887 11.5 9.51256 11.7239 9.51256 12C9.51256 12.2761 9.2887 12.5 9.01256 12.5ZM15.5126 12C15.5126 12.2761 15.2887 12.5 15.0126 12.5C14.7364 12.5 14.5126 12.2761 14.5126 12C14.5126 11.7239 14.7364 11.5 15.0126 11.5C15.2887 11.5 15.5126 11.7239 15.5126 12Z" fill="#7F7989"/>
<path fill-rule="evenodd" clip-rule="evenodd" d="M9.49911 14.1297C10.1221 13.8528 10.8176 13.8157 11.4577 13.994C12.1456 14.1856 13.1446 14.4665 13.9193 14.8787C14.3045 15.0837 14.7083 15.3585 14.982 15.7342C15.2824 16.1465 15.4133 16.6695 15.2241 17.2372C14.9775 17.9769 14.2513 18.1132 13.8257 18.1242C13.3578 18.1363 12.826 18.0257 12.36 17.8994C11.8803 17.7693 11.4039 17.6035 11.0311 17.4697C10.9573 17.4432 10.8893 17.4186 10.8261 17.3958L10.8212 17.394C10.7214 17.3579 10.6336 17.3261 10.5547 17.2984C10.437 17.2571 10.3833 17.2409 10.3692 17.2366L10.3656 17.2355C10.3652 17.2354 10.3652 17.2355 10.3656 17.2355C9.95939 17.1543 9.69589 16.7591 9.77712 16.3529C9.85835 15.9467 10.2535 15.6833 10.6596 15.7646C10.7795 15.7885 10.9327 15.8414 11.0519 15.8832C11.1363 15.9129 11.2362 15.949 11.3424 15.9874C11.4059 16.0104 11.4716 16.0341 11.5377 16.0578C11.904 16.1893 12.3336 16.338 12.7525 16.4516C13.1781 16.567 13.533 16.629 13.775 16.625L13.7697 16.6175C13.6914 16.5101 13.5192 16.365 13.2146 16.2029C12.6098 15.881 11.7744 15.6393 11.0551 15.439C10.7338 15.3494 10.3973 15.372 10.1083 15.5004L6.88749 16.9319L7.65863 18.5856C8.45963 18.2622 9.72271 18.072 10.9286 18.876C12.0417 19.618 12.8656 19.75 13.0126 19.75C13.1595 19.75 13.9834 19.618 15.0965 18.876C16.0741 18.2242 18.3318 17.0308 19.245 16.5537C19.3436 16.5022 19.4124 16.4535 19.457 16.4112C19.4989 16.3713 19.5087 16.3473 19.5114 16.3392C19.5405 16.2521 19.5472 16.185 19.5421 16.1408C19.5398 16.1212 19.5353 16.1061 19.529 16.0927C19.5229 16.0798 19.5104 16.0585 19.4822 16.0303C19.4454 15.9935 19.4193 15.9823 19.4042 15.9773C19.3858 15.9713 19.358 15.9667 19.3154 15.97C19.2182 15.9776 19.1047 16.0218 19.0131 16.0717C19.0043 16.0765 18.9859 16.087 18.9617 16.1008C18.8925 16.1403 18.7757 16.2069 18.6989 16.2454L16.848 17.1708C16.4775 17.3561 16.027 17.2059 15.8417 16.8354C15.6565 16.4649 15.8067 16.0144 16.1771 15.8292L18.0281 14.9037C18.0779 14.8788 18.1049 14.863 18.1426 14.8409C18.1767 14.8209 18.2195 14.7958 18.2957 14.7543C18.4761 14.6561 18.8034 14.5056 19.1982 14.4746C19.6205 14.4415 20.1219 14.5487 20.5429 14.9697C21.1804 15.6072 21.0796 16.3797 20.9338 16.8152C20.7425 17.3871 20.2755 17.7076 19.9397 17.8831C18.9972 18.3756 16.824 19.5271 15.9286 20.124C14.6417 20.982 13.5323 21.25 13.0126 21.25C12.4928 21.25 11.3834 20.982 10.0965 20.124C9.45214 19.6944 8.74706 19.7769 8.28519 19.948C8.5841 20.7883 8.19994 21.7339 7.37516 22.1185L6.33389 22.6041C5.45794 23.0126 4.41673 22.6336 4.00827 21.7576L2.16438 17.8034C1.75592 16.9275 2.13489 15.8863 3.01084 15.4778L4.05211 14.9922C4.83709 14.6262 5.75481 14.8925 6.23091 15.5822L9.49911 14.1297ZM13.9357 16.6071C13.9364 16.6075 13.9317 16.6096 13.9197 16.6123C13.929 16.6081 13.935 16.6067 13.9357 16.6071ZM3.64476 16.8373C3.51963 16.8956 3.46549 17.0443 3.52384 17.1695L5.36773 21.1237C5.42608 21.2488 5.57482 21.303 5.69996 21.2446L6.74123 20.7591C6.86636 20.7007 6.9205 20.552 6.86215 20.4268L5.01827 16.4726C4.95991 16.3475 4.81117 16.2933 4.68603 16.3517L3.64476 16.8373Z" fill="#7F7989"/>
</svg>
