<svg width="16" height="16" viewBox="0 0 16 16" fill="none" xmlns="http://www.w3.org/2000/svg">
    <path d="M7.99951 11C8.16951 11 8.31201 10.9425 8.42701 10.8275C8.54201 10.7125 8.59951 10.57 8.59951 10.4C8.59951 10.23 8.54201 10.0875 8.42701 9.9725C8.31201 9.8575 8.16951 9.8 7.99951 9.8C7.82951 9.8 7.68701 9.8575 7.57201 9.9725C7.45701 10.0875 7.39951 10.23 7.39951 10.4C7.39951 10.57 7.45701 10.7125 7.57201 10.8275C7.68701 10.9425 7.82951 11 7.99951 11ZM7.39951 8.6H8.59951V5H7.39951V8.6ZM7.99951 14C7.16951 14 6.38951 13.8425 5.65951 13.5275C4.92951 13.2125 4.29451 12.785 3.75451 12.245C3.21451 11.705 2.78701 11.07 2.47201 10.34C2.15701 9.61 1.99951 8.83 1.99951 8C1.99951 7.17 2.15701 6.39 2.47201 5.66C2.78701 4.93 3.21451 4.295 3.75451 3.755C4.29451 3.215 4.92951 2.7875 5.65951 2.4725C6.38951 2.1575 7.16951 2 7.99951 2C8.82951 2 9.60951 2.1575 10.3395 2.4725C11.0695 2.7875 11.7045 3.215 12.2445 3.755C12.7845 4.295 13.212 4.93 13.527 5.66C13.842 6.39 13.9995 7.17 13.9995 8C13.9995 8.83 13.842 9.61 13.527 10.34C13.212 11.07 12.7845 11.705 12.2445 12.245C11.7045 12.785 11.0695 13.2125 10.3395 13.5275C9.60951 13.8425 8.82951 14 7.99951 14Z" fill="#B9C0E2"/>
</svg>
