<svg width="24" height="24" viewBox="0 0 24 24" fill="none" xmlns="http://www.w3.org/2000/svg">
    <path d="M17.5681 18.0168C16.4633 18.0168 15.5593 17.1159 15.5593 16.0147C15.5593 14.9136 16.4633 14.0126 17.5681 14.0126C18.673 14.0126 19.5769 14.9136 19.5769 16.0147C19.5769 17.1159 18.673 18.0168 17.5681 18.0168Z" fill="#37474F"/>
    <path d="M17.5678 21.02C16.0612 21.02 14.6048 20.3193 13.6507 19.1681L15.2075 17.9167C15.7599 18.6175 16.6639 19.0679 17.5678 19.0679C19.2251 19.0679 20.581 17.7165 20.581 16.0648C20.581 14.4131 19.2251 13.0616 17.5678 13.0616C17.0656 13.0616 16.5634 13.2118 16.1114 13.412L15.2577 13.9125L11.6921 7.50579L13.4498 6.55479L16.1114 11.2597C16.6136 11.1096 17.1158 11.0095 17.618 11.0095C20.3801 11.0095 22.64 13.2618 22.64 16.0147C22.64 18.7676 20.3299 21.02 17.5678 21.02Z" fill="#37474F"/>
    <path d="M7.02197 21.02C4.25989 21.02 2 18.7676 2 16.0147C2 13.7123 3.55681 11.7603 5.76648 11.1596L6.26868 13.1117C4.96296 13.462 4.00879 14.6633 4.00879 16.0147C4.00879 17.6665 5.36472 19.0179 7.02197 19.0179C8.67922 19.0179 10.0352 17.6665 10.0352 16.0147V15.0137H15.8303L15.5593 16.0147L15.8361 17.0257L11.9435 17.0158C11.4915 19.3182 9.43252 21.02 7.02197 21.02Z" fill="#37474F"/>
    <path d="M7.02197 18.0168C5.91714 18.0168 5.01318 17.1159 5.01318 16.0147C5.01318 14.9136 5.91714 14.0126 7.02197 14.0126C8.12681 14.0126 9.03076 14.9136 9.03076 16.0147C9.03076 17.1159 8.12681 18.0168 7.02197 18.0168Z" fill="#E91E63"/>
    <path d="M12.546 9.00737C11.4412 9.00737 10.5372 8.10642 10.5372 7.00526C10.5372 5.90411 11.4412 5.00316 12.546 5.00316C13.6508 5.00316 14.5548 5.90411 14.5548 7.00526C14.5548 8.10642 13.6508 9.00737 12.546 9.00737Z" fill="#37474F"/>
    <path d="M7.87555 16.5153L6.16808 15.5142L9.13105 10.6591C8.12665 9.7081 7.52401 8.40674 7.52401 7.00526C7.52401 4.25237 9.7839 2 12.546 2C15.3081 2 17.568 4.25237 17.568 7.00526C17.568 7.45574 17.5177 7.85616 17.4173 8.25658L15.4587 7.75605C15.509 7.50579 15.5592 7.25553 15.5592 7.00526C15.5592 5.35353 14.2032 4.0021 12.546 4.0021C10.8887 4.0021 9.5328 5.35353 9.5328 7.00526C9.5328 8.05637 10.0852 9.00737 10.9892 9.55795L11.8429 10.0585L7.87555 16.5153Z" fill="#E91E63"/>
    <path d="M16.0614 15.0137H15.5592V17.0158H16.0614V15.0137Z" fill="#37474F"/>
</svg>
