<svg width="24" height="24" viewBox="0 0 24 24" fill="none" xmlns="http://www.w3.org/2000/svg">
<path d="M4.44444 11.1111C4.19898 11.1111 4 10.9121 4 10.6667V4.44444C4 4.19898 4.19898 4 4.44444 4H10.6667C10.9121 4 11.1111 4.19898 11.1111 4.44444V10.6667C11.1111 10.9121 10.9121 11.1111 10.6667 11.1111H4.44444ZM4.44444 20C4.19898 20 4 19.801 4 19.5556V13.3333C4 13.0879 4.19898 12.8889 4.44444 12.8889H10.6667C10.9121 12.8889 11.1111 13.0879 11.1111 13.3333V19.5556C11.1111 19.801 10.9121 20 10.6667 20H4.44444ZM13.3333 11.1111C13.0879 11.1111 12.8889 10.9121 12.8889 10.6667V4.44444C12.8889 4.19898 13.0879 4 13.3333 4H19.5556C19.801 4 20 4.19898 20 4.44444V10.6667C20 10.9121 19.801 11.1111 19.5556 11.1111H13.3333ZM13.3333 20C13.0879 20 12.8889 19.801 12.8889 19.5556V13.3333C12.8889 13.0879 13.0879 12.8889 13.3333 12.8889H19.5556C19.801 12.8889 20 13.0879 20 13.3333V19.5556C20 19.801 19.801 20 19.5556 20H13.3333ZM14.6667 8.88889C14.6667 9.13435 14.8657 9.33333 15.1111 9.33333H17.7778C18.0232 9.33333 18.2222 9.13435 18.2222 8.88889V6.22222C18.2222 5.97676 18.0232 5.77778 17.7778 5.77778H15.1111C14.8657 5.77778 14.6667 5.97676 14.6667 6.22222V8.88889ZM14.6667 17.7778C14.6667 18.0232 14.8657 18.2222 15.1111 18.2222H17.7778C18.0232 18.2222 18.2222 18.0232 18.2222 17.7778V15.1111C18.2222 14.8657 18.0232 14.6667 17.7778 14.6667H15.1111C14.8657 14.6667 14.6667 14.8657 14.6667 15.1111V17.7778ZM5.77778 17.7778C5.77778 18.0232 5.97676 18.2222 6.22222 18.2222H8.88889C9.13435 18.2222 9.33333 18.0232 9.33333 17.7778V15.1111C9.33333 14.8657 9.13435 14.6667 8.88889 14.6667H6.22222C5.97676 14.6667 5.77778 14.8657 5.77778 15.1111V17.7778Z" fill="#7F7989"/>
</svg>
