<svg width="24" height="24" viewBox="0 0 24 24" fill="none" xmlns="http://www.w3.org/2000/svg">
<path d="M12 2C6.489 2 2 6.489 2 12C2 17.511 6.489 22 12 22C17.511 22 22 17.511 22 12C22 6.489 17.511 2 12 2ZM12 4C16.4301 4 20 7.56988 20 12C20 16.4301 16.4301 20 12 20C7.56988 20 4 16.4301 4 12C4 7.56988 7.56988 4 12 4ZM9 8L9 16H10.6484V13.0703H11.9629L13.4629 16H15.2305V15.9238L13.5 12.6543C13.719 12.5553 13.9177 12.4387 14.0937 12.3027C14.2697 12.1677 14.4199 12.0072 14.5449 11.8262C14.6699 11.6452 14.7641 11.4381 14.8301 11.2051C14.8961 10.9731 14.9297 10.711 14.9297 10.418C14.9297 10.022 14.8626 9.67305 14.7266 9.37305C14.5916 9.07305 14.3975 8.82214 14.1445 8.61914C13.8915 8.41514 13.5818 8.26125 13.2148 8.15625C12.8478 8.05125 12.4347 8 11.9727 8L9 8ZM10.6504 9.33594H11.9746C12.4176 9.33594 12.7469 9.4422 12.9609 9.6582C13.1749 9.8742 13.2812 10.1718 13.2812 10.5488C13.2812 10.7278 13.2542 10.8902 13.1992 11.0352C13.1442 11.1802 13.0611 11.3032 12.9531 11.4082C12.8451 11.5132 12.7099 11.5934 12.5469 11.6504C12.3839 11.7074 12.1945 11.7363 11.9785 11.7363H10.6504V9.33594Z" fill="#7F7989"/>
</svg>
