<svg width="24" height="24" viewBox="0 0 24 24" fill="none" xmlns="http://www.w3.org/2000/svg">
    <path d="M4.47222 11.5556C4.21142 11.5556 4 11.3441 4 11.0833V4.47222C4 4.21142 4.21142 4 4.47222 4H11.0833C11.3441 4 11.5556 4.21142 11.5556 4.47222V11.0833C11.5556 11.3441 11.3441 11.5556 11.0833 11.5556H4.47222ZM4.47222 21C4.21142 21 4 20.7886 4 20.5278V13.9167C4 13.6559 4.21142 13.4444 4.47222 13.4444H11.0833C11.3441 13.4444 11.5556 13.6559 11.5556 13.9167V20.5278C11.5556 20.7886 11.3441 21 11.0833 21H4.47222ZM13.9167 11.5556C13.6559 11.5556 13.4444 11.3441 13.4444 11.0833V4.47222C13.4444 4.21142 13.6559 4 13.9167 4H20.5278C20.7886 4 21 4.21142 21 4.47222V11.0833C21 11.3441 20.7886 11.5556 20.5278 11.5556H13.9167ZM13.9167 21C13.6559 21 13.4444 20.7886 13.4444 20.5278V13.9167C13.4444 13.6559 13.6559 13.4444 13.9167 13.4444H20.5278C20.7886 13.4444 21 13.6559 21 13.9167V20.5278C21 20.7886 20.7886 21 20.5278 21H13.9167ZM15.3333 9.19444C15.3333 9.45525 15.5448 9.66667 15.8056 9.66667H18.6389C18.8997 9.66667 19.1111 9.45525 19.1111 9.19444V6.36111C19.1111 6.10031 18.8997 5.88889 18.6389 5.88889H15.8056C15.5448 5.88889 15.3333 6.10031 15.3333 6.36111V9.19444ZM15.3333 18.6389C15.3333 18.8997 15.5448 19.1111 15.8056 19.1111H18.6389C18.8997 19.1111 19.1111 18.8997 19.1111 18.6389V15.8056C19.1111 15.5448 18.8997 15.3333 18.6389 15.3333H15.8056C15.5448 15.3333 15.3333 15.5448 15.3333 15.8056V18.6389ZM5.88889 18.6389C5.88889 18.8997 6.10031 19.1111 6.36111 19.1111H9.19444C9.45525 19.1111 9.66667 18.8997 9.66667 18.6389V15.8056C9.66667 15.5448 9.45525 15.3333 9.19444 15.3333H6.36111C6.10031 15.3333 5.88889 15.5448 5.88889 15.8056V18.6389Z" fill="#7F7989"/>
</svg>
