<svg width="16" height="16" viewBox="0 0 16 16" fill="none" xmlns="http://www.w3.org/2000/svg">
    <path d="M7.99951 11.3333C8.1884 11.3333 8.34674 11.2694 8.47451 11.1417C8.60229 11.0139 8.66618 10.8556 8.66618 10.6667C8.66618 10.4778 8.60229 10.3194 8.47451 10.1917C8.34674 10.0639 8.1884 10 7.99951 10C7.81062 10 7.65229 10.0639 7.52451 10.1917C7.39673 10.3194 7.33285 10.4778 7.33285 10.6667C7.33285 10.8556 7.39673 11.0139 7.52451 11.1417C7.65229 11.2694 7.81062 11.3333 7.99951 11.3333ZM7.33285 8.66667H8.66618V4.66667H7.33285V8.66667ZM5.49951 14L1.99951 10.5V5.5L5.49951 2H10.4995L13.9995 5.5V10.5L10.4995 14H5.49951Z" fill="#E64C67"/>
</svg>
