<svg width="24" height="24" viewBox="0 0 24 24" fill="none" xmlns="http://www.w3.org/2000/svg">
<path d="M12.5265 14.6316C12.5265 15.7895 13.4738 16.7369 14.6317 16.7369H19.8948C21.0526 16.7369 22 15.7895 22 14.6316C22 13.4737 21.0526 12.5263 19.8948 12.5263H14.6317C13.4738 12.5263 12.5265 13.4737 12.5265 14.6316Z" fill="#F5BC00"/>
<path d="M12.5265 17.7895V19.8947C12.5265 21.0526 13.4738 22 14.6317 22C15.7896 22 16.7369 21.0526 16.7369 19.8947C16.7369 18.7368 15.7896 17.7895 14.6317 17.7895H12.5265Z" fill="#F5BC00"/>
<path d="M9.36846 12.5263C8.21059 12.5263 7.26324 13.4737 7.26324 14.6316V19.8947C7.26324 21.0526 8.21059 22 9.36846 22C10.5263 22 11.4737 21.0526 11.4737 19.8947V14.6316C11.4737 13.4737 10.5263 12.5263 9.36846 12.5263Z" fill="#F55376"/>
<path d="M6.21046 12.5263H4.10523C2.94735 12.5263 2 13.4737 2 14.6316C2 15.7895 2.94735 16.7369 4.10523 16.7369C5.2631 16.7369 6.21046 15.7895 6.21046 14.6316V12.5263Z" fill="#F55376"/>
<path d="M11.4735 9.36843C11.4735 8.21053 10.5262 7.26316 9.3683 7.26316H4.10523C2.94735 7.26316 2 8.21053 2 9.36843C2 10.5263 2.94735 11.4737 4.10523 11.4737H9.3683C10.5262 11.4737 11.4735 10.5263 11.4735 9.36843Z" fill="#00B3D7"/>
<path d="M11.4737 6.21053V4.10527C11.4737 2.94738 10.5263 2.00001 9.36846 2.00001C8.21059 2.00001 7.26324 2.94738 7.26324 4.10527C7.26324 5.26317 8.21059 6.21053 9.36846 6.21053H11.4737Z" fill="#00B3D7"/>
<path d="M14.6317 11.4737C15.7896 11.4737 16.7369 10.5263 16.7369 9.36842V4.10526C16.7369 2.94737 15.7896 2 14.6317 2C13.4738 2 12.5265 2.94737 12.5265 4.10526V9.36842C12.5265 10.5263 13.4738 11.4737 14.6317 11.4737Z" fill="#00B569"/>
<path d="M17.7892 11.4737H19.8944C21.0523 11.4737 21.9997 10.5263 21.9997 9.36843C21.9997 8.21053 21.0523 7.26316 19.8944 7.26316C18.7366 7.26316 17.7892 8.21053 17.7892 9.36843V11.4737Z" fill="#00B569"/>
</svg>
